<svg height="58" xmlns="http://www.w3.org/2000/svg" id="Layer_1" data-name="Layer 1" viewBox="0 0 102.38 33.93">
  <defs>
    <clipPath id="clippath">
      <path fill="none" stroke-width="0" d="M23.16 21.46c0 5.71-4.63 10.33-10.33 10.33S2.5 27.17 2.5 21.46V7.75h20.67v13.71Z"/>
    </clipPath>
    <style>
      .cls-1,.cls-2,.cls-3,.cls-8,.cls-9{stroke-miterlimit:3.86}.cls-1,.cls-2,.cls-9{stroke:#0072bc}.cls-1,.cls-10,.cls-3,.cls-8{stroke-width:.4px}.cls-1,.cls-11,.cls-12,.cls-8{fill:#fd0}.cls-2{stroke-width:.04px}.cls-13,.cls-14,.cls-2,.cls-9{fill:#0072bc}.cls-11,.cls-13,.cls-15,.cls-2{fill-rule:evenodd}.cls-10,.cls-3{fill:none}.cls-10,.cls-3,.cls-8{stroke:#231f20;stroke-linecap:round}.cls-11,.cls-12,.cls-13,.cls-14,.cls-15,.cls-18{stroke-width:0}.cls-10{stroke-linejoin:round}.cls-15,.cls-18{fill:#231f20}.cls-9{stroke-width:.1px}
    </style>
  </defs>
  <path d="M23.16 21.46c0 5.71-4.63 10.33-10.33 10.33S2.5 27.17 2.5 21.46V7.75h20.67v13.71Z" class="cls-14"/>
  <g clip-path="url(#clippath)">
    <path fill="#fff" stroke-width="0" d="M18.66 28.56c-1.06-1.1-2.05-1.09-3.11-2.19-1.06-1.1-1.01-2.08-2.08-3.18-1.06-1.1-2.04-1.09-3.11-2.19-1.06-1.1-1.01-2.08-2.08-3.18-1.06-1.1-2.05-1.09-3.11-2.19-1.06-1.1-1.02-2.08-2.08-3.18s-2.05-1.1-3.11-2.19l4.26-4.11c1.05 1.09 2.04 1.09 3.11 2.19 1.06 1.1 1.02 2.08 2.08 3.18s2.04 1.09 3.11 2.19c1.06 1.1 1.02 2.08 2.08 3.18s2.04 1.09 3.11 2.19c1.06 1.1 1.01 2.08 2.08 3.18 1.06 1.1 2.01 1.09 3.07 2.19 1.06 1.1 1.02 2.08 2.08 3.18s2.04 1.09 3.11 2.19l-4.26 4.11c-1.06-1.1-2.05-1.09-3.11-2.19-1.06-1.1-.98-2.08-2.04-3.18Z"/>
    <path fill="#0072bc" stroke="#0072bc" stroke-miterlimit="3.86" stroke-width=".03" d="m12.95 18.19.11.03.03.12-1.22 1.2-.12-.03-.03-.12 1.23-1.2z"/>
    <path d="M11.71 18.13s.44-.25.86-.1c-.06-.14-.09-.48.11-.61l.19.67-.62.61-.61.6-.65-.22c.13-.21.47-.16.6-.09-.12-.43.12-.86.12-.86ZM13.11 19.61s.25-.44.13-.86c.13.07.47.11.6-.1l-.65-.22-.62.61-.61.6.19.67c.21-.12.17-.47.11-.61.42.14.85-.09.85-.09Z" class="cls-14"/>
    <path d="m11.55 16.6-.85-1.72.41.03-.49-1.02-.15.17-.02-.79.56.5-.21.03.79 1.46-.38-.02 1.23 2.24s-.3-.54-.89-.88ZM10.41 15.37c-.25-.57-.69-.73-.69-.73l-.93-1.5h.41l-.58-.97-.14.18-.09-.78.61.45-.21.05.92 1.37-.39.02 1.43 2.13s-.13-.14-.37-.2ZM10.25 17.45l-1.36-.96-.03.42-.92-.64.18-.13-.76-.13.41.64.06-.2 1.3 1.01.04-.39 2.03 1.59s-.03-.12-.04-.26c-.43-.08-.89-.56-.91-.94ZM9.42 16.15c-.65-.17-.73-.78-.73-.78l-1.22-1.05-.06.42-.85-.72.19-.12-.75-.2.35.68.08-.2 1.2 1.12.07-.39 1.87 1.75s-.13-.24-.14-.51Z" class="cls-2"/>
    <path d="m7.99 13.99.02-.21c.03-.31.05-.48-.16-.73-.38-.46-.74-.37-.74-.37-.03.33.05.53.28.85.27.37.59.46.59.46ZM8.65 15.04c-.02-.18 0-.37.02-.54.03-.34.12-.67-.12-.94-.22-.26-.43-.3-.43-.3.09.2.06.4.03.64-.03.31-.04.69.14.91.18.21.35.24.35.24ZM9.45 15.41c.04-.38.13-.74-.13-1.05-.23-.27-.47-.32-.47-.32.03.2-.01.42-.03.64-.03.34-.05.77.16 1 .24.28.46.28.46.28-.01-.07 0-.37.02-.55ZM10.24 16.99c-.01-.21 0-.43.02-.62.04-.44.15-.87-.15-1.23-.27-.32-.51-.37-.51-.37.08.25.02.53 0 .81-.04.37-.05.85.18 1.12.23.27.47.29.47.29Z" class="cls-14"/>
    <path d="M10.41 15.58s.28.07.6.44c.35.41.22.91.17 1.42-.02.24-.04.5-.02.76h-.05s-.24-.04-.51-.36c-.27-.31-.25-.87-.21-1.31.03-.33.1-.66 0-.96Z" class="cls-13"/>
    <path d="M11.57 18.01c.28-.16.69-.21.87-.18a2.7 2.7 0 0 0-.42-.62c-.31-.37-.63-.44-.63-.44.03.27-.03.55-.06.84-.04.38-.06.96.05 1.16 0-.32.05-.52.19-.76Z" class="cls-14"/>
    <path d="m14.6 19.82 1.65.93v-.42l.97.53-.17.15.78.05-.47-.59-.04.21-1.4-.85v.39l-2.15-1.33s.52.33.83.94ZM15.77 21.03c.55.27.7.73.7.73l1.44 1 .02-.42.93.62-.18.13.76.12-.42-.63-.05.2-1.31-.98-.03.39-2.04-1.54s.13.14.19.38ZM13.72 21.11l.9 1.41h-.41l.59.97.14-.18.1.78-.61-.44.2-.05-.94-1.36.38-.02-1.49-2.12s.12.03.25.05c.07.44.51.92.89.96ZM14.97 22.01c.14.67.74.77.74.77l.99 1.28-.41.05.68.89.12-.19.17.77-.65-.38.2-.07-1.06-1.26.38-.06-1.65-1.96s.23.14.5.16Z" class="cls-2"/>
    <path d="M17.04 23.53s.11 0 .21-.01c.3-.02.47-.04.71.18.43.41.34.77.34.77-.33.02-.52-.07-.83-.32-.35-.29-.43-.62-.43-.62ZM16.03 22.82c.17.02.37 0 .53 0 .33-.02.66-.1.92.15.25.24.27.45.27.45-.19-.09-.39-.07-.62-.05-.3.02-.68.02-.88-.18-.21-.2-.22-.36-.22-.36ZM15.7 22c.37-.03.73-.11 1.02.17.26.24.3.49.3.49-.19-.04-.41 0-.62.01-.33.02-.75.02-.98-.2-.27-.25-.26-.48-.26-.48.07.02.37.01.54 0ZM14.17 21.14c.21.02.42.01.61 0 .43-.03.86-.13 1.2.2.3.28.35.53.35.53-.24-.09-.52-.04-.8-.02-.37.02-.84.02-1.09-.22-.26-.24-.27-.49-.27-.49Z" class="cls-14"/>
    <path d="M15.56 21.01s-.06-.29-.41-.62c-.39-.37-.88-.26-1.39-.23-.24.02-.5.02-.75 0v.05s.03.24.33.53c.3.28.84.29 1.28.26.33-.02.66-.08.94.03Z" class="cls-13"/>
    <path d="M13.23 19.75c.17-.28.23-.7.2-.88.18.1.34.22.59.45.35.33.41.66.41.66-.26-.04-.54.01-.83.03-.38.03-.94.03-1.13-.1.32.01.51-.03.75-.17Z" class="cls-14"/>
  </g>
  <path fill="none" stroke="#231f20" stroke-miterlimit="3.86" stroke-width=".4" d="M23.16 21.46c0 5.71-4.63 10.33-10.33 10.33S2.5 27.17 2.5 21.46V7.75h20.67v13.71Z"/>
  <path d="M5.58 25.93c.02-.11.36 0 .38-.48.02-.48-.95-.91-.49-1.93.25-.56 1.05-.64 1.42-.33.42.35.95 1.28 1.04 2.34.09 1-.07 1.83-.38 2.16-.35.37-.79.25-.95-.04-.15-.27-.26-.4-.5-.35.25-.82.88-.02 1.04 0 .5.08.57-.9.57-1.43s-.62-1.86-.93-1.52c-.33.35-.05.51-.08 1.18-.02.42-.32.58-.67.57-.25 0-.46-.06-.45-.17ZM11.09 25.93c-.02-.11-.35 0-.38-.48-.02-.48.95-.91.49-1.93-.25-.56-1.05-.64-1.42-.33-.42.35-.95 1.28-1.04 2.34-.09 1 .07 1.83.37 2.16.35.37.79.25.95-.04.15-.27.26-.4.5-.35-.25-.82-.88-.02-1.04 0-.5.08-.57-.9-.57-1.43s.62-1.86.93-1.52c.33.35.05.51.08 1.18.02.42.32.58.67.57.25 0 .46-.06.44-.17Z" class="cls-12"/>
  <path d="M8.34 20.7c-.08.5-1.11 1.12-1.09 1.79.04 1.12.83 1.79.84 3.37.01 1.33-.35 1.69-.35 2.22 0 .36.57.49.6.75.03-.26.6-.39.6-.75 0-.53-.36-.89-.35-2.22.01-1.58.8-2.25.84-3.37.03-.67-1.01-1.29-1.08-1.79Z" class="cls-12"/>
  <path d="m8.34 27.99-.06-1.73v-.81l.03-3.22h.05l.04 3.22v.81l-.06 1.73z" class="cls-9"/>
  <path d="M8.34 26.24h-.77s-.25-.06-.25-.36.25-.37.25-.37H9.1s.25.06.25.37-.25.36-.25.36h-.77Z" class="cls-1"/>
  <path d="M15.63 14.06c.02-.11.36 0 .38-.48.03-.48-.95-.91-.49-1.93.25-.56 1.05-.64 1.42-.33.42.34.95 1.28 1.04 2.33.09 1-.07 1.84-.38 2.17-.35.37-.79.25-.95-.04-.15-.28-.26-.41-.5-.35.25-.82.88-.02 1.04 0 .5.08.57-.9.57-1.43s-.62-1.86-.93-1.53c-.33.35-.05.51-.09 1.19-.02.42-.32.58-.67.57-.25-.01-.46-.06-.44-.17ZM21.14 14.06c-.03-.11-.36 0-.38-.48-.03-.48.94-.91.49-1.93-.25-.56-1.05-.64-1.42-.33-.42.34-.95 1.28-1.04 2.33-.09 1 .07 1.84.38 2.17.35.37.79.25.95-.04.15-.28.26-.41.5-.35-.25-.82-.88-.02-1.04 0-.5.08-.57-.9-.57-1.43s.62-1.86.93-1.53c.33.35.05.51.09 1.19.02.42.32.58.67.57.25-.01.46-.06.44-.17Z" class="cls-12"/>
  <path d="M18.39 8.83c-.08.51-1.11 1.12-1.09 1.79.04 1.12.83 1.79.84 3.37.01 1.33-.35 1.69-.35 2.22 0 .36.57.49.6.75.03-.26.6-.39.6-.75 0-.53-.36-.89-.35-2.22.01-1.58.8-2.25.84-3.37.03-.67-1.01-1.28-1.09-1.79Z" class="cls-12"/>
  <path d="m18.39 16.12-.06-1.73v-.81l.03-3.22h.05l.04 3.22v.81l-.06 1.73z" class="cls-9"/>
  <path d="M18.39 14.37h-.77s-.25-.06-.25-.36.25-.37.25-.37h1.53s.25.06.25.37-.25.36-.25.36h-.77Z" class="cls-1"/>
  <path fill="none" stroke="#231f20" stroke-miterlimit="3.86" stroke-width=".37" d="M2.85 6.88h.27V4.1L1.95 2.98V1.66h-.46V.26h.67V1h.62V.26h.79V1h.62V.26h.68v1.4h-.43v1.31h2.4V1.66h-.46V.26h.67V1h.61V.26h.79V1h.62V.26h.67v1.4h-.43v1.31h2.34V1.66h-.46V.26h.67V1h.61V.26h.79V1h.62V.26h.67v1.4h-.43v1.31h2.34V1.6H16V.2h.68v.74h.61V.2h.79v.74h.62V.2h.68v1.4h-.43v1.37h2.4V1.66h-.46V.26h.67V1h.61V.26h.79V1h.62V.26h.68v1.4h-.43v1.32l-1.24 1.19v2.71h.28v.84H2.85v-.84Zm19.77-2.71v1.38"/>
  <path fill="none" stroke="#231f20" stroke-linecap="round" stroke-miterlimit="3.86" stroke-width=".14" d="M22.62 4.17v1.38"/>
  <path d="M3.12 5.55h19.5v1.33H3.12V5.55h0zM3.12 2.97h19.5v1.2H3.12v-1.2h0zM3.12 4.17h19.5v1.38H3.12V4.17h0zM2.85 6.88H22.9v.84H2.85v-.84h0z" class="cls-8"/>
  <path d="M22.29 2.91h.62v-.78c0-.17-.14-.31-.31-.31s-.31.14-.31.31v.78Zm-.92-1.25h-.46V.26h.67V1h.62V.26h.79V1h.62V.26h.68v1.4h-.43v1.31l-1.24 1.2-1.24-1.2V1.66Z" class="cls-11"/>
  <path d="M22.29 2.91h.62v-.78c0-.17-.14-.31-.31-.31s-.31.14-.31.31v.78h0Zm-.92-1.25h-.46V.26h.67V1h.62V.26h.79V1h.62V.26h.68v1.4h-.43v1.31l-1.24 1.2-1.24-1.2V1.66h0Z" class="cls-10"/>
  <path d="M22.62 4.17v1.38m-3.25-1.38v1.38m-3.25-1.38v1.38m-3.25-1.38v1.38M9.62 4.17v1.38M6.37 4.17v1.38M3.12 4.17v1.38M4.69 6.87v-1.3m3.28 1.3v-1.3m3.28 1.3v-1.3m3.28 1.3v-1.3m3.28 1.3v-1.3m3.28 1.3v-1.3" class="cls-3"/>
  <path d="M2.86 2.91h.62v-.78c0-.17-.14-.31-.31-.31s-.31.14-.31.31v.78Zm-.91-1.25h-.46V.26h.67V1h.62V.26h.79V1h.62V.26h.68v1.4h-.43v1.31L3.2 4.17l-1.24-1.2V1.66Z" class="cls-11"/>
  <path d="M2.86 2.91h.62v-.78c0-.17-.14-.31-.31-.31s-.31.14-.31.31v.78h0Zm-.91-1.25h-.46V.26h.67V1h.62V.26h.79V1h.62V.26h.68v1.4h-.43v1.31L3.2 4.17l-1.24-1.2V1.66h0Z" class="cls-10"/>
  <path d="M7.73 2.91h.62v-.78c0-.17-.14-.31-.31-.31s-.31.14-.31.31v.78Zm-.89-1.25h-.46V.26h.67V1h.62V.26h.79V1h.62V.26h.68v1.4h-.43v1.31l-1.24 1.2-1.24-1.2V1.66Z" class="cls-11"/>
  <path d="M7.73 2.91h.62v-.78c0-.17-.14-.31-.31-.31s-.31.14-.31.31v.78h0Zm-.89-1.25h-.46V.26h.67V1h.62V.26h.79V1h.62V.26h.68v1.4h-.43v1.31l-1.24 1.2-1.24-1.2V1.66h0Z" class="cls-10"/>
  <path d="M12.58 2.91h.62v-.78c0-.17-.14-.31-.31-.31s-.31.14-.31.31v.78Zm-.92-1.25h-.46V.26h.67V1h.62V.26h.79V1h.62V.26h.67v1.4h-.43v1.31l-1.24 1.2-1.24-1.2V1.66Z" class="cls-11"/>
  <path d="M12.58 2.91h.62v-.78c0-.17-.14-.31-.31-.31s-.31.14-.31.31v.78h0Zm-.92-1.25h-.46V.26h.67V1h.62V.26h.79V1h.62V.26h.67v1.4h-.43v1.31l-1.24 1.2-1.24-1.2V1.66h0Z" class="cls-10"/>
  <path d="M17.41 2.91h.62v-.78c0-.17-.14-.31-.31-.31s-.31.14-.31.31v.78Zm-.92-1.31h-.46V.2h.67v.74h.62V.2h.79v.74h.62V.2h.68v1.4h-.43v1.31l-1.24 1.26-1.24-1.26V1.6Z" class="cls-11"/>
  <path d="M17.41 2.91h.62v-.78c0-.17-.14-.31-.31-.31s-.31.14-.31.31v.78h0Zm-.92-1.31h-.46V.2h.67v.74h.62V.2h.79v.74h.62V.2h.68v1.4h-.43v1.31l-1.24 1.26-1.24-1.26V1.6h0Z" class="cls-10"/>
  <path d="M2.85 6.82h.27V4.1L1.95 2.98V1.66H1.5V.26h.67V1h.62V.26h.79V1h.61V.26h.68v1.4h-.43v1.31h2.4V1.66h-.46V.26h.68V1h.61V.26h.79V1h.62V.26h.67v1.4h-.42v1.31h2.33V1.66h-.45V.26h.67V1h.62V.26h.79V1h.61V.26h.68v1.4h-.43v1.31h2.34V1.6h-.46V.2h.68v.74h.61V.2h.79v.74h.62V.2h.67v1.4h-.43v1.37h2.4V1.66h-.45V.26h.67V1h.62V.26H23V1h.61V.26h.68v1.4h-.43v1.32l-1.24 1.19v2.65h.28v.9H2.85V6.82z" class="cls-3"/>
  <path d="M32.59 27.19c.02.67.04 1.14.05 1.4.01.26.03.44.05.54-.24-.02-.51-.03-.8-.03s-.57.01-.81.03c.02-.1.04-.28.05-.54.01-.26.03-.73.05-1.41.02-1.04.03-2.21.03-3.49s-.01-2.47-.03-3.49c-.02-.68-.04-1.15-.05-1.41-.01-.26-.03-.44-.05-.54.24.02.51.03.81.03s.57 0 .8-.03c-.02.1-.04.29-.05.55-.01.26-.03.73-.05 1.4-.02.94-.03 1.97-.02 3.08h.02c.7-.6 1.5-1.38 2.43-2.32 1-1.03 1.81-1.91 2.42-2.66h.81c.3 0 .57 0 .81-.03-.1.07-.3.23-.59.48-.29.26-.81.74-1.57 1.46l-1.28 1.22-1.65 1.64 1.71 2.06 1.75 2.05c.63.73 1.05 1.22 1.28 1.48.23.26.37.41.42.46-.29-.02-.62-.03-1-.03s-.71.01-1 .03c-.15-.27-.32-.53-.52-.79s-.52-.64-.95-1.16l-.82-.97c-.89-1.04-1.66-1.91-2.29-2.61h.02v.09c0 1.29 0 2.46.02 3.49ZM45.02 29.32c-1.71 0-3.1-.5-4.17-1.5-1.07-1-1.6-2.31-1.6-3.93 0-1.72.55-3.12 1.65-4.2 1.1-1.07 2.53-1.61 4.3-1.61s3.12.5 4.18 1.51c1.06 1 1.6 2.31 1.6 3.93 0 1.72-.55 3.12-1.65 4.19-1.1 1.07-2.53 1.61-4.3 1.61Zm.09-.68c1.29 0 2.32-.46 3.08-1.38.77-.92 1.15-2.15 1.15-3.68s-.38-2.62-1.15-3.5c-.77-.87-1.8-1.31-3.08-1.31s-2.31.46-3.08 1.38c-.77.92-1.16 2.15-1.16 3.69 0 1.45.38 2.62 1.16 3.49.77.87 1.79 1.31 3.08 1.31ZM53.25 26.02c-.12.93-.19 1.6-.23 2.01-.03.41-.04.78-.03 1.09-.17-.02-.37-.03-.59-.03s-.42.01-.59.03c.04-.13.08-.33.13-.59.05-.26.12-.71.22-1.35l.5-3.48c.3-2.15.53-3.95.68-5.4h.28c.75 1.47 1.72 3.29 2.92 5.46l1.71 3.07 4.59-8.53h.28c.12 1.44.3 3.24.55 5.4.15 1.28.29 2.44.43 3.47.09.66.16 1.12.2 1.38.04.26.08.45.12.57-.23-.02-.49-.03-.78-.03s-.55 0-.78.02c-.11-1.44-.29-3.25-.54-5.41l-.27-2.26c-.4.68-.8 1.42-1.23 2.22-1.17 2.17-2.09 4-2.78 5.49h-.28c-.71-1.47-1.64-3.29-2.79-5.46l-1.19-2.22-.28 2.23-.27 2.33ZM67.23 26.02c-.12.93-.2 1.6-.23 2.01-.03.41-.04.78-.03 1.09-.17-.02-.37-.03-.59-.03s-.42.01-.59.03c.04-.13.09-.33.13-.59s.12-.71.22-1.35l.51-3.48c.3-2.15.53-3.95.68-5.4h.28c.75 1.47 1.72 3.29 2.92 5.46l1.71 3.07 4.59-8.53h.28c.11 1.44.3 3.24.55 5.4.15 1.28.29 2.44.43 3.47.09.66.16 1.12.21 1.38.04.26.08.45.12.57-.23-.02-.49-.03-.78-.03s-.55 0-.78.02c-.11-1.44-.29-3.25-.54-5.41l-.27-2.26c-.4.68-.81 1.42-1.23 2.22-1.17 2.17-2.09 4-2.78 5.49h-.28c-.71-1.47-1.64-3.29-2.79-5.46l-1.19-2.22-.28 2.23-.27 2.33Z" class="cls-15"/>
  <path d="M89.59 24.4c0 1.61-.38 2.83-1.15 3.67-.77.84-1.89 1.25-3.37 1.25s-2.61-.36-3.33-1.07c-.72-.71-1.09-1.82-1.09-3.31v-1.12l-.02-3.6c0-.64-.02-1.09-.03-1.35 0-.26-.03-.46-.05-.6.24.02.5.03.8.03s.56 0 .8-.03c-.03.14-.05.35-.07.61-.02.26-.04.71-.05 1.34-.02 1.06-.03 2.26-.03 3.59v.64c0 1.37.28 2.39.82 3.05.54.66 1.38.99 2.51.99s2.04-.35 2.59-1.05c.54-.7.81-1.8.81-3.32v-.31l-.02-3.6c-.01-.66-.02-1.12-.03-1.38a4.76 4.76 0 0 0-.05-.57c.17.02.36.03.58.03s.4 0 .57-.03c-.04.18-.06.4-.08.66-.02.26-.04.69-.06 1.28-.03 1.06-.05 2.26-.05 3.59v.59Z" class="cls-18"/>
  <path d="M93.48 27.19c.02.66.04 1.12.05 1.38.02.26.04.45.06.57-.16-.02-.34-.03-.54-.03s-.39.01-.54.03c.02-.1.04-.29.05-.54.01-.26.03-.72.05-1.4.02-1.04.03-2.21.03-3.48s0-2.43-.03-3.45c-.02-.67-.04-1.14-.05-1.4-.01-.26-.03-.44-.05-.54h.46c1.34 1.52 3.05 3.38 5.14 5.59l2.6 2.7v-2.77c0-1.33 0-2.53-.03-3.6-.02-.68-.04-1.15-.05-1.41-.01-.26-.03-.44-.05-.54.16.02.35.03.55.03s.39 0 .55-.03c-.02.1-.04.28-.05.54-.01.26-.03.73-.05 1.41-.02 1.06-.03 2.26-.03 3.59 0 2.2.03 4.04.08 5.51h-.45c-1.34-1.52-3.05-3.38-5.14-5.59l-2.61-2.72v2.69c0 1.29.02 2.46.05 3.49Z" class="cls-15"/>
  <path d="M31.15 14.86c.02-.11.04-.31.05-.6.01-.29.03-.81.05-1.56.02-1.16.03-2.47.03-3.92s-.01-2.77-.03-3.93c-.02-.75-.04-1.27-.05-1.56-.01-.28-.03-.49-.05-.6.26.02.56.03.89.03s.62 0 .88-.03c-.02.11-.04.31-.05.59-.01.29-.03.81-.05 1.56a222.45 222.45 0 0 0 .01 8.97c.39.02.8.03 1.23.02h.63c.54 0 1.09-.02 1.67-.06.58-.04.98-.08 1.21-.12-.04.18-.05.38-.05.6s.02.42.05.59c-.25-.04-.63-.07-1.14-.1-.51-.03-.97-.04-1.38-.04h-1.41c-.46 0-.93.01-1.41.04-.48.03-.84.06-1.08.1ZM49.46 9.5c0 1.79-.42 3.15-1.28 4.08-.85.93-2.1 1.39-3.74 1.39s-2.9-.4-3.7-1.19c-.8-.79-1.21-2.02-1.21-3.68V8.86l-.02-4c0-.71-.02-1.21-.03-1.49 0-.29-.03-.51-.06-.66.26.02.56.03.89.03s.62 0 .89-.03c-.03.16-.06.38-.08.67-.02.29-.04.79-.06 1.49-.02 1.18-.04 2.51-.04 3.99v.71c0 1.53.31 2.66.92 3.39.6.74 1.54 1.1 2.79 1.1s2.27-.39 2.87-1.17c.61-.78.91-2 .9-3.69v-.34l-.02-4c-.01-.73-.02-1.24-.04-1.53-.01-.29-.03-.5-.05-.63.19.02.4.03.64.03s.45 0 .64-.03c-.04.2-.07.44-.09.73-.02.29-.04.76-.07 1.43-.04 1.18-.05 2.51-.05 4v.65Z" class="cls-18"/>
  <path d="M52.49 12.6c.02-1.16.04-2.45.04-3.87s-.01-2.74-.04-3.88c-.02-.76-.04-1.28-.05-1.57-.01-.29-.03-.49-.05-.6l.89.04 4.19-.04c1.91 0 3.38.49 4.41 1.47 1.03.98 1.55 2.38 1.55 4.19 0 2-.62 3.56-1.85 4.71-1.23 1.14-2.93 1.72-5.09 1.72l-3.21-.04-.89.04c.02-.11.04-.31.06-.6.01-.29.03-.81.05-1.56Zm1.58 1.17c.74.08 1.59.11 2.57.09 1.63 0 2.87-.48 3.71-1.45.85-.96 1.27-2.37 1.27-4.22 0-1.51-.42-2.66-1.26-3.45-.84-.79-2.07-1.18-3.69-1.18-.99 0-1.85.02-2.58.08-.05 1.44-.08 3.12-.07 5.06 0 1.95.02 3.63.05 5.05ZM64.69 4.85c-.35-.8-.59-1.34-.72-1.63-.13-.29-.21-.47-.25-.53.29.02.63.03 1.01.03s.71 0 1.01-.03c.07.31.15.61.25.9.1.29.25.71.47 1.26L68 8.78l1.65 4.04c.49-1.18 1.04-2.53 1.63-4.03.57-1.44 1.07-2.76 1.5-3.94.21-.54.36-.96.44-1.25.09-.29.16-.59.23-.91.21.02.45.03.71.03s.5 0 .7-.03c-.05.08-.13.26-.26.55-.13.29-.35.82-.68 1.6l-1.6 3.9c-.99 2.41-1.79 4.41-2.43 6.02-.23-.04-.44-.06-.61-.06s-.37.02-.61.06c-.6-1.63-1.39-3.64-2.38-6.05-.59-1.44-1.13-2.73-1.62-3.87Z" class="cls-15"/>
  <path d="M77.13 12.6c.02-1.16.04-2.45.04-3.87s-.01-2.74-.04-3.88c-.02-.75-.04-1.26-.05-1.55-.01-.29-.03-.49-.05-.6.26.02.56.03.89.03s.63 0 .9-.03c-.02.11-.04.31-.05.6-.01.29-.03.81-.05 1.55-.02 1.15-.03 2.45-.03 3.87s.01 2.73.03 3.88c.02.74.04 1.26.05 1.55.01.29.03.49.05.6-.27-.02-.57-.04-.9-.04s-.63.01-.89.04c.02-.12.04-.32.05-.61.01-.29.03-.8.05-1.55Z" class="cls-18"/>
  <path d="M83.62 12.6c.02.75.04 1.27.05 1.55.01.29.03.49.05.61-.27-.02-.56-.04-.89-.04s-.63.01-.9.04c.02-.11.04-.31.05-.6.01-.29.03-.81.05-1.56.02-1.16.04-2.45.04-3.87s-.01-2.74-.04-3.88c-.02-.76-.04-1.28-.05-1.57-.01-.29-.03-.49-.05-.6.26.03.56.04.9.04s.63 0 .89-.04c-.02.12-.04.32-.05.61-.01.29-.03.81-.05 1.56-.02 1.05-.03 2.19-.03 3.42h.03c.77-.67 1.67-1.53 2.69-2.58 1.12-1.14 2.01-2.13 2.69-2.96h.91c.34 0 .63 0 .9-.03-.12.07-.33.25-.65.54-.32.29-.9.82-1.75 1.62l-1.42 1.36-1.83 1.82 1.9 2.29 1.95 2.28c.7.81 1.17 1.36 1.42 1.65.25.29.41.46.47.51-.33-.02-.69-.04-1.11-.04s-.79.01-1.11.04a5.8 5.8 0 0 0-.58-.88c-.22-.29-.57-.71-1.06-1.29l-.91-1.08c-.99-1.16-1.84-2.12-2.55-2.89h.02v.09c0 1.44 0 2.73.03 3.88ZM92.32 12.6c.55-1.13 1.14-2.4 1.78-3.82 1.09-2.4 1.95-4.41 2.59-6.05h.42c.65 1.62 1.49 3.63 2.54 6.03.62 1.42 1.19 2.7 1.71 3.84l1.02 2.16c-.29-.02-.61-.04-.97-.04s-.68.01-.96.04c-.07-.3-.16-.6-.26-.89-.1-.29-.27-.72-.5-1.28l-.98-2.35c-.65-.09-1.38-.13-2.19-.15-.83-.03-1.55.01-2.19.15-.37.83-.7 1.62-.98 2.35-.21.51-.37.92-.47 1.2-.09.29-.18.61-.26.96-.21-.02-.44-.04-.7-.04s-.49.01-.7.04c.06-.08.16-.27.31-.56.15-.28.41-.82.8-1.6Zm4.21-7.39c-.48 1.03-.99 2.19-1.54 3.47l-.19.44c.52.08 1.09.12 1.72.1.61 0 1.17-.05 1.7-.12l-.17-.41-1.52-3.49Z" class="cls-15"/>
</svg>
